<?xml version="1.0" encoding="iso-8859-1"?>
<!-- Generator: Adobe Illustrator 19.0.0, SVG Export Plug-In . SVG Version: 6.00 Build 0)  -->
<svg version="1.1" id="Layer_1" xmlns="http://www.w3.org/2000/svg" xmlns:xlink="http://www.w3.org/1999/xlink" x="0px" y="0px"
	 viewBox="0 0 300.363 300.363" style="enable-background:new 0 0 300.363 300.363;" xml:space="preserve">
<g>
	<g>
		<g>
			<path d="M295.837,48.193L252.171,4.526c-2.898-2.898-6.827-4.526-10.925-4.525c-4.097-0.001-8.027,1.626-10.924,4.525
				l-91.038,91.038l-10.944-10.942c-6.033-6.034-15.815-6.034-21.849,0l-32.775,32.775l109.25,109.249l32.775-32.775
				c6.033-6.034,6.033-15.816-0.001-21.85l-10.941-10.94l91.038-91.038C301.872,64.009,301.872,54.226,295.837,48.193z"/>
			<path d="M4.524,186.589c-6.033,6.034-6.033,15.816,0.001,21.849l87.398,87.4c6.034,6.033,15.816,6.033,21.851,0l47.343-47.344
				L51.868,139.245L4.524,186.589z"/>
		</g>
	</g>
</g>
<g>
</g>
<g>
</g>
<g>
</g>
<g>
</g>
<g>
</g>
<g>
</g>
<g>
</g>
<g>
</g>
<g>
</g>
<g>
</g>
<g>
</g>
<g>
</g>
<g>
</g>
<g>
</g>
<g>
</g>
</svg>
