<?xml version="1.0" encoding="UTF-8"?>
<!DOCTYPE svg PUBLIC "-//W3C//DTD SVG 1.1//EN" "http://www.w3.org/Graphics/SVG/1.1/DTD/svg11.dtd">
<svg xmlns="http://www.w3.org/2000/svg" version="1.1" width="512px" height="512px" style="shape-rendering:geometricPrecision; text-rendering:geometricPrecision; image-rendering:optimizeQuality; fill-rule:evenodd; clip-rule:evenodd" xmlns:xlink="http://www.w3.org/1999/xlink">
<g><path style="opacity:0.982" fill="#000000" d="M 440.5,-0.5 C 447.833,-0.5 455.167,-0.5 462.5,-0.5C 488.5,6.16667 504.833,22.5 511.5,48.5C 511.5,55.8333 511.5,63.1667 511.5,70.5C 509.485,78.5443 506.318,86.211 502,93.5C 492.864,103.637 483.364,113.47 473.5,123C 478,127.5 482.5,132 487,136.5C 498.047,153.052 499.381,170.386 491,188.5C 489.667,190.5 488.333,192.5 487,194.5C 449.833,231.667 412.667,268.833 375.5,306C 365.367,310.511 357.534,308.011 352,298.5C 350.932,293.232 351.599,288.232 354,283.5C 390.333,247.167 426.667,210.833 463,174.5C 466.574,167.925 466.241,161.592 462,155.5C 458.833,152.333 455.667,149.167 452.5,146C 451.833,145.333 451.167,145.333 450.5,146C 422.653,174.014 394.653,201.847 366.5,229.5C 337.833,201.5 309.5,173.167 281.5,144.5C 325.32,100.18 369.32,56.0137 413.5,12C 421.804,6.17908 430.804,2.01241 440.5,-0.5 Z"/></g>
<g><path style="opacity:0.957" fill="#000000" d="M 259.5,165.5 C 288.416,192.915 316.916,220.915 345,249.5C 345.667,250.167 345.667,250.833 345,251.5C 338,258.5 331,265.5 324,272.5C 295.5,244 267,215.5 238.5,187C 245.703,179.965 252.703,172.798 259.5,165.5 Z"/></g>
<g><path style="opacity:0.978" fill="#000000" d="M 217.5,208.5 C 218.552,208.351 219.552,208.517 220.5,209C 248.207,236.373 275.541,264.04 302.5,292C 257.642,332.188 212.142,371.688 166,410.5C 143.5,389.333 121.667,367.5 100.5,345C 139.322,299.345 178.322,253.845 217.5,208.5 Z"/></g>
<g><path style="opacity:0.971" fill="#000000" d="M 20.5,511.5 C 16.5,511.5 12.5,511.5 8.5,511.5C 7.01307,510.196 5.3464,509.03 3.5,508C 2.30342,505.985 0.970083,504.151 -0.5,502.5C -0.5,498.5 -0.5,494.5 -0.5,490.5C 6.99966,461.174 14.833,431.841 23,402.5C 40.0637,389.717 57.5637,377.55 75.5,366C 76.7589,365.018 78.0922,364.685 79.5,365C 87.2105,372.376 94.5439,380.042 101.5,388C 91.0424,399.459 80.2091,410.625 69,421.5C 62.8551,434.212 66.6885,442.212 80.5,445.5C 83.6913,444.825 86.6913,443.658 89.5,442C 100.375,430.791 111.541,419.958 123,409.5C 131.305,416.638 139.138,424.305 146.5,432.5C 134.451,451.434 121.784,469.934 108.5,488C 79.1592,496.167 49.8258,504 20.5,511.5 Z"/></g>
</svg>
