<?xml version="1.0" encoding="iso-8859-1"?>
<!-- Generator: Adobe Illustrator 19.0.0, SVG Export Plug-In . SVG Version: 6.00 Build 0)  -->
<svg version="1.1" id="Layer_1" xmlns="http://www.w3.org/2000/svg" xmlns:xlink="http://www.w3.org/1999/xlink" x="0px" y="0px"
	 viewBox="0 0 512 512" style="enable-background:new 0 0 512 512;" xml:space="preserve">
<g>
	<g>
		<polygon points="57.832,391.052 0,448.885 85.151,504.67 128.3,461.521 		"/>
	</g>
</g>
<g>
	<g>
		<path d="M497.972,113.851l-92.47-92.47c-9.06-9.061-21.107-14.051-33.921-14.051c-12.813,0-24.861,4.99-33.922,14.051
			L141.153,217.886l160.314,160.313l196.507-196.505C516.676,162.989,516.676,132.554,497.972,113.851z"/>
	</g>
</g>
<g>
	<g>
		<path d="M119.691,239.347L61.56,297.479l21.069,21.069l-25.993,25.993c-0.401,0.401-0.787,0.811-1.163,1.228l118.112,118.112
			c0.418-0.376,0.828-0.764,1.228-1.163l25.993-25.992l21.068,21.068l58.132-58.132L119.691,239.347z"/>
	</g>
</g>
<g>
</g>
<g>
</g>
<g>
</g>
<g>
</g>
<g>
</g>
<g>
</g>
<g>
</g>
<g>
</g>
<g>
</g>
<g>
</g>
<g>
</g>
<g>
</g>
<g>
</g>
<g>
</g>
<g>
</g>
</svg>
